<svg width="700" height="700" viewBox="0 0 700 700" fill="none" xmlns="http://www.w3.org/2000/svg">
<path d="M32.5521 185.738C57.9606 126.538 83.3691 59.4448 139.833 26.5561C196.296 -6.77113 284.379 -5.45556 358.346 12.5236C432.878 30.5028 493.858 65.5841 544.675 101.104C596.057 136.624 637.84 172.582 634.452 213.364C631.629 254.585 583.635 300.19 598.315 352.812C612.431 404.996 689.222 463.757 698.82 513.748C708.984 564.177 651.956 605.398 586.458 641.356C520.961 677.314 446.429 708.449 379.802 697.925C313.175 687.4 254.453 635.655 232.433 579.525C210.976 523.834 226.222 464.195 186.697 424.729C147.173 385.262 51.7496 365.529 17.3069 330.448C-17.7004 295.367 7.14353 244.937 32.5521 185.738Z" fill="#00CCFF"/>
</svg>
