<svg width="1008" height="492" viewBox="0 0 1008 492" fill="none" xmlns="http://www.w3.org/2000/svg">
<path d="M738.549 0.118543C814.705 -3.06153 860.686 58.2684 909.542 120.507C958.397 182.746 1009.41 245.438 1007.97 309.04C1006.53 372.187 940.101 404.25 856.041 434.234C771.263 464.218 676 412 578 462.5C503.5 489 403.747 502.116 352.018 481.218C299.571 460.775 271.551 412.619 208.327 377.184C145.102 342.203 46.6736 319.943 13.6245 282.236C-19.4245 244.076 12.9061 190.469 54.5766 142.313C96.9657 94.1578 147.976 51.9083 214.793 51.9083C281.609 52.3626 364.232 95.5207 459.068 83.2547C554.623 70.9887 661.674 3.29862 738.549 0.118543Z" fill="#F65FD7"/>
</svg>
