<svg width="700" height="700" viewBox="0 0 700 700" fill="none" xmlns="http://www.w3.org/2000/svg">
<path d="M699.831 187.119C704.36 134.233 617.022 102.301 528.39 68.3738C439.758 34.4467 350.479 -0.977315 259.906 0.0205474C169.98 1.01841 124.32 47.1521 81.621 105.527C38.9223 164.401 113.284 230.556 41.3683 298.611C3.63052 350.347 -15.0473 419.62 14.7124 455.543C43.8251 491.965 112.402 511.423 162.864 555.329C212.679 599.235 244.379 667.588 298.076 690.539C352.42 713.489 428.76 691.037 497.336 662.1C565.913 632.663 626.079 597.239 626.079 550.838C625.432 504.438 563.972 447.061 581.44 381.202C598.907 314.845 695.303 240.504 699.831 187.119Z" fill="#F65FD7"/>
</svg>
