<svg width="1008" height="477" viewBox="0 0 1008 477" fill="none" xmlns="http://www.w3.org/2000/svg">
<path d="M170.523 1.62339C90.1967 10.5986 31.6128 63.3279 9.87024 118.675C-11.8723 174.022 3.22668 232.361 46.1078 274.993C88.3849 317.999 159.048 345.299 209.781 383.443C261.117 421.962 291.54 454.671 346.5 471.5C401.46 488.328 502 457 582.5 436.5C672.49 428.273 763.007 472.821 844.542 444.774C926.076 416.726 987.68 360.631 1003.38 300.049C1019.69 239.092 991.304 173.648 941.779 116.805C892.859 59.5882 822.799 11.3465 738.245 3.49322C653.691 -4.36007 541.757 50.7479 441.5 50C340.639 48.8781 250.85 -7.72577 170.523 1.62339Z" fill="#00FFCC"/>
</svg>
