<svg width="700" height="700" viewBox="0 0 700 700" fill="none" xmlns="http://www.w3.org/2000/svg">
<path d="M698.467 581.581C685.26 637.363 607.669 678.047 526.227 693.146C444.784 708.245 358.939 697.759 296.207 667.981C232.923 638.622 192.753 589.55 136.623 554.319C79.9436 518.669 31.8117 497.542 7.04877 459.375C-17.7142 421.208 28.3854 351.389 58.5509 295.486C70.6572 232.993 5.10457 170.134 46.3761 113.513C87.6477 56.8914 170.191 14.1109 259.337 3.2061C349.034 -8.11814 445.334 11.5944 528.978 45.9865C613.172 79.9593 684.159 128.612 695.715 187.33C707.271 246.048 626.18 323.78 627.281 393.403C628.932 463.445 712.224 525.799 698.467 581.581Z" fill="#00FFCC"/>
</svg>
