<svg width="1008" height="496" viewBox="0 0 1008 496" fill="none" xmlns="http://www.w3.org/2000/svg">
<path d="M740.538 23.0655C825.786 41.0692 922.4 59.073 969.759 99.0814C1017.75 139.09 1015.86 201.503 989.966 253.914C964.076 306.725 913.559 349.934 862.41 385.941C811.262 422.349 759.482 451.955 700.756 449.555C641.398 447.554 575.726 413.547 499.95 423.949C424.806 433.951 340.19 488.363 268.203 495.164C195.585 502.366 136.227 461.957 84.4473 415.547C32.6673 369.138 -12.1666 316.327 2.98851 269.117C18.1436 221.907 92.6563 180.298 173.484 164.695C253.68 149.492 339.559 160.294 396.39 132.288C453.222 104.282 481.638 36.6683 532.155 12.2632C582.672 -12.542 655.29 5.06171 740.538 23.0655Z" fill="#00CCFF"/>
</svg>
