<svg width="36" height="36" viewBox="0 0 36 36" fill="none" xmlns="http://www.w3.org/2000/svg">
<path d="M34.9875 17.4375C34.65 8.71874 27.5062 1.57499 18.7312 1.23749C14.0062 1.06874 9.61874 2.75624 6.18749 5.96249C2.81249 9.22499 0.956238 13.5562 0.956238 18.225C0.956238 25.9312 6.13124 32.6812 13.5562 34.65C13.7812 34.7062 13.95 34.7062 14.175 34.7062C14.6812 34.7062 15.1875 34.5375 15.5812 34.2C16.1437 33.75 16.4812 33.075 16.4812 32.3437V30.5437C16.4812 30.0375 16.5375 27.9 16.5375 27.5062C16.5937 27.225 16.65 27 16.8187 26.8312C17.1562 26.3812 17.2125 25.7625 16.9875 25.2562C16.7625 24.8062 16.3125 24.4687 15.8062 24.4687C15.4687 24.4125 15.075 24.3562 14.7937 24.2437C14.3437 24.1312 13.95 23.9625 13.5 23.7375C13.1625 23.5687 12.8812 23.2875 12.6 22.95C12.4312 22.7812 12.2062 22.3875 11.9812 21.6562C11.7562 20.9812 11.7 20.3062 11.7 19.575C11.7 18.5625 11.9812 17.775 12.6 17.1C12.9375 16.7062 13.05 16.2 12.825 15.75C12.6562 15.3562 12.6 14.9062 12.7125 14.3437C13.5 14.625 13.725 14.7937 13.7812 14.85L13.8375 14.9062C14.0625 15.0187 14.2312 15.1312 14.4 15.2437L14.5687 15.3562C14.85 15.525 15.2437 15.5812 15.5812 15.4687C16.4812 15.2437 17.4375 15.075 18.3375 15.075C19.2937 15.075 20.1937 15.1875 21.0937 15.4687C21.4312 15.5812 21.7687 15.525 22.1062 15.3562L22.725 14.9625C23.1187 14.7375 23.5687 14.5125 23.9625 14.3437C24.075 14.85 24.0187 15.3562 23.85 15.8062C23.6812 16.2562 23.7937 16.7625 24.075 17.1C24.6937 17.775 24.975 18.5625 24.975 19.575C24.975 20.3625 24.8625 21.0375 24.6937 21.6C24.4687 22.1625 24.3 22.6125 24.0187 22.95C23.7937 23.2312 23.4562 23.4562 23.0062 23.7375C22.5562 23.9625 22.1625 24.1312 21.7125 24.2437C21.4312 24.3 21.0375 24.4125 20.6437 24.4687H20.5875C20.0812 24.5812 19.6875 24.9187 19.4625 25.3687C19.2937 25.8187 19.2937 26.325 19.6312 26.775C19.8562 27.0562 19.9687 27.5062 19.9687 28.0125V32.2312C19.9687 32.9625 20.3062 33.6937 20.925 34.0875C21.5437 34.5375 22.275 34.65 22.95 34.425C30.4875 32.2875 35.3812 25.2 34.9875 17.4375ZM22.6125 32.0625V28.125C22.6125 27.6187 22.5562 27.1687 22.4437 26.775H22.5C23.0625 26.6062 23.6812 26.3812 24.3 26.0437C24.3 26.0437 24.3562 26.0437 24.3562 25.9875C25.0312 25.5937 25.5937 25.1437 25.9875 24.6375C26.55 24.0187 26.8312 23.2312 27.1125 22.5C27.3937 21.6562 27.5062 20.7562 27.5062 19.6312C27.5062 18.2812 27.1125 17.0437 26.3812 16.0312C26.6062 14.9625 26.4937 13.7812 25.9875 12.5437C25.875 12.2062 25.5375 11.925 25.2 11.8125C24.5812 11.5875 23.9062 11.7 23.0062 11.9812C22.4437 12.2062 21.8812 12.4875 21.3187 12.7687L21.2062 12.9375C19.2937 12.4875 17.2687 12.4875 15.3562 12.9375C15.3 12.8812 15.2437 12.8812 15.1312 12.825C14.7937 12.6 14.3437 12.375 13.6125 12.0937C12.7125 11.7 11.9812 11.5875 11.3062 11.8125C10.9687 11.925 10.6312 12.2062 10.5187 12.6C10.0687 13.8937 9.95624 15.0187 10.1812 16.0875C9.44999 17.1 9.05624 18.3375 9.05624 19.6875C9.05624 20.7 9.16874 21.6 9.44999 22.5C9.73124 23.4 10.0687 24.1312 10.5187 24.6375C11.025 25.2562 11.5875 25.7062 12.2062 26.0437C12.7687 26.3812 13.3875 26.6062 14.0062 26.775C14.0625 26.775 14.0625 26.775 14.1187 26.775C14.0625 26.9437 14.0625 27.1687 14.0062 27.3375C14.0062 27.3937 14.0062 27.45 14.0062 27.45C14.0062 27.45 14.0062 28.1812 14.0062 28.9687C12.7687 28.5187 11.7562 27.9 10.8562 27C10.1812 26.2125 9.39374 25.4812 8.99999 25.2562C8.21249 24.8625 7.70624 25.65 7.81874 26.1C7.98749 26.6625 8.77499 27 9.28124 27.45C9.78749 27.9562 9.89999 28.6312 10.2375 29.1937C10.7437 29.925 12.4875 30.8812 13.95 30.8812V32.175C7.81874 30.4312 3.54374 24.75 3.54374 18.2812C3.54374 14.2875 5.11874 10.575 7.98749 7.81874C10.6875 5.17499 14.2875 3.76874 18.0562 3.76874C18.225 3.76874 18.45 3.76874 18.6187 3.76874C26.1 4.04999 32.175 10.125 32.4562 17.55C32.7937 24.075 28.7437 30.0375 22.6125 32.0625Z" fill="black"/>
</svg>
