<svg width="34" height="34" viewBox="0 0 34 34" fill="none" xmlns="http://www.w3.org/2000/svg">
<path d="M20.4864 8.25964C20.6577 7.78176 21.3422 7.78176 21.5136 8.25964L21.9824 9.56642C22.0373 9.71938 22.1591 9.83971 22.3139 9.89392L23.6371 10.357C24.1208 10.5263 24.1208 11.2021 23.6371 11.3714L22.3139 11.8345C22.1591 11.8887 22.0373 12.009 21.9824 12.162L21.5136 13.4688C21.3422 13.9467 20.6577 13.9467 20.4864 13.4688L20.0176 12.162C19.9626 12.009 19.8408 11.8887 19.686 11.8345L18.3628 11.3714C17.8791 11.2021 17.8791 10.5263 18.3628 10.357L19.686 9.89392C19.8408 9.83971 19.9626 9.71938 20.0176 9.56642L20.4864 8.25964Z" fill="#7A8292"/>
<path d="M25.6576 14.0661C25.772 13.7476 26.2281 13.7476 26.3424 14.0661L26.655 14.9372C26.6916 15.0393 26.7728 15.1195 26.8761 15.1556L27.7581 15.4644C28.0808 15.5772 28.0808 16.0277 27.7581 16.1406L26.8761 16.4492C26.7728 16.4855 26.6916 16.5657 26.655 16.6677L26.3424 17.5388C26.2281 17.8574 25.772 17.8574 25.6576 17.5388L25.3451 16.6677C25.3085 16.5657 25.2272 16.4855 25.124 16.4492L24.242 16.1406C23.9193 16.0277 23.9193 15.5772 24.242 15.4644L25.124 15.1556C25.2272 15.1195 25.3085 15.0393 25.3451 14.9372L25.6576 14.0661Z" fill="#7A8292"/>
<path d="M28.2565 0.518827C28.5047 -0.172942 29.4953 -0.172942 29.7435 0.518827L30.5941 2.8898C30.6734 3.11122 30.85 3.28542 31.0741 3.36389L33.4747 4.204C34.1751 4.44912 34.1751 5.42743 33.4747 5.67255L31.0741 6.51266C30.85 6.59111 30.6734 6.76532 30.5941 6.98676L29.7435 9.35772C29.4953 10.0495 28.5047 10.0495 28.2565 9.35772L27.4059 6.98676C27.3266 6.76532 27.15 6.59111 26.9259 6.51266L24.5253 5.67255C23.8249 5.42743 23.8249 4.44912 24.5253 4.204L26.9259 3.36389C27.15 3.28542 27.3266 3.11122 27.4059 2.8898L28.2565 0.518827Z" fill="#7A8292"/>
<path d="M2 18.595C2 25.9984 8.17636 32 15.7952 32C21.6606 32 26.6709 28.4432 28.6667 23.4281C27.086 24.1495 25.3211 24.5527 23.4594 24.5527C16.6869 24.5527 11.1969 19.218 11.1969 12.6372C11.1969 9.88489 12.1571 7.35059 13.7698 5.33333C7.11115 6.28533 2 11.8601 2 18.595Z" fill="#DDE0E2" stroke="#859CC7" stroke-width="4" stroke-linecap="round" stroke-linejoin="round"/>
</svg>
