<svg width="32" height="31" viewBox="0 0 32 31" fill="none" xmlns="http://www.w3.org/2000/svg">
<path d="M3.48076 30.7253L5.16167 30.2754L5.61269 29.2985L8.52585 29.375L11.5555 28.564L12.2379 27.5061L15.0727 27.6226L18.0325 26.8304C20.0885 26.2821 20.7852 23.7007 19.2775 22.193L8.6321 11.5363C7.12439 10.0286 4.54301 10.7139 3.99475 12.7813L3.11226 16.0784L3.2358 18.7564L2.22976 19.3754L1.32754 22.7462L1.47871 25.3137L0.492451 25.8661L0.0998296 27.333C-0.459851 29.3889 1.42479 31.2736 3.48076 30.7253Z" fill="#E9AD56"/>
<path d="M6.62267 25.1886C4.93184 23.6097 3.49164 21.7087 2.21997 19.4118L3.10785 16.0946C4.56813 19.2904 6.21078 21.679 8.18134 23.5191C10.0805 25.2926 12.33 26.5994 15.115 27.6112L11.5408 28.5679C9.71109 27.6575 8.08378 26.5531 6.62267 25.1886Z" fill="#6F7285"/>
<path d="M2.60933 28.4251C1.80102 27.6692 1.10617 26.8226 0.490479 25.8736L1.34126 22.6949C2.14384 24.397 3.0428 25.7035 4.16925 26.7568C5.29302 27.8078 6.69173 28.6522 8.55318 29.3676L5.13936 30.2813C4.19958 29.7415 3.36239 29.1294 2.60933 28.4251Z" fill="#6F7285"/>
<path d="M19.5402 25.9166C21.1393 24.3175 19.1518 19.7487 15.1084 15.7053C11.065 11.6619 6.50758 9.67448 4.90849 11.2736C3.3094 12.8727 5.29684 17.4415 9.34028 21.4849C13.3837 25.5283 17.9525 27.5043 19.5402 25.9166Z" fill="#4B3125"/>
<path d="M10.9737 4.87726C12.3901 7.52718 12.6756 10.5654 11.7961 13.4323C11.0537 15.8766 9.52312 17.944 7.44432 19.3718C6.85037 18.6294 6.33638 17.8869 5.90234 17.1673C7.49001 16.0822 8.65506 14.506 9.22615 12.6442C9.90005 10.4626 9.68303 8.15534 8.60937 6.14511C8.25529 5.48263 8.50657 4.67167 9.15762 4.329C9.8201 3.97492 10.6311 4.22621 10.9737 4.87726Z" fill="#F374BA"/>
<path d="M23.0121 15.6626C25.1716 13.9566 27.9725 13.6093 30.3837 14.5085C31.0033 14.7396 31.6929 14.4247 31.924 13.805C32.1551 13.1855 31.84 12.496 31.2205 12.2649C28.0578 11.0853 24.3709 11.5375 21.5277 13.7836C21.0088 14.1934 20.9205 14.9463 21.3304 15.4652C21.7402 15.9841 22.4932 16.0725 23.0121 15.6626Z" fill="#F374BA"/>
<path d="M4.5774 7.64139C5.30915 7.64139 5.90236 7.04818 5.90236 6.31643C5.90236 5.58467 5.30915 4.99147 4.5774 4.99147C3.84565 4.99147 3.25244 5.58467 3.25244 6.31643C3.25244 7.04818 3.84565 7.64139 4.5774 7.64139Z" fill="#F374BA"/>
<path d="M27.5584 6.31643C27.5584 7.04818 26.9651 7.64139 26.2334 7.64139C25.5016 7.64139 24.9084 7.04818 24.9084 6.31643C24.9084 5.58467 25.5016 4.99147 26.2334 4.99147C26.9651 4.99147 27.5584 5.58467 27.5584 6.31643Z" fill="#F374BA"/>
<path d="M11.9787 1.09652C11.9787 1.7021 11.4878 2.19303 10.8822 2.19303C10.2766 2.19303 9.78564 1.7021 9.78564 1.09652C9.78564 0.490931 10.2766 0 10.8822 0C11.4878 0 11.9787 0.490931 11.9787 1.09652Z" fill="#E9AD56"/>
<path d="M26.816 24.4546C26.816 25.0665 26.3199 25.5625 25.708 25.5625C25.0962 25.5625 24.6001 25.0665 24.6001 24.4546C24.6001 23.8427 25.0962 23.3467 25.708 23.3467C26.3199 23.3467 26.816 23.8427 26.816 24.4546Z" fill="#E9AD56"/>
<path d="M22.4185 1.16504C22.2357 1.00513 22.0073 0.902333 21.756 0.890911C21.1392 0.856645 20.6138 1.32495 20.5681 1.94174C20.4881 3.19816 19.6201 5.47115 19.2888 6.23643C19.2888 6.24214 19.286 6.24785 19.2831 6.25356C19.2803 6.25927 19.2774 6.26499 19.2774 6.2707C19.2162 6.42154 19.1507 6.57029 19.081 6.7167C18.9645 6.57079 18.8358 6.43723 18.6949 6.3164C18.3751 6.03084 17.9867 5.81383 17.5298 5.66534L17.4956 5.65392C15.9536 5.13992 14.2745 5.97373 13.7605 7.52713C13.5093 8.28099 13.5664 9.08053 13.9205 9.7887C14.2745 10.4969 14.8799 11.0223 15.6338 11.2736C15.7146 11.3005 15.7968 11.3177 15.8786 11.3254C16.4557 11.4813 17.0142 11.4867 17.5519 11.3423C17.5193 11.4991 17.4815 11.6552 17.4384 11.8104C17.2785 12.4043 17.6326 13.0211 18.2266 13.181C18.8205 13.341 19.4373 12.9869 19.5972 12.3929C19.8546 11.4625 19.966 10.5149 19.9318 9.55763C20.5261 8.81314 21.0008 7.99292 21.3562 7.10451L21.373 7.0638C21.5848 6.55139 22.6959 3.86301 22.8068 2.06738C22.8182 1.7133 22.6697 1.38206 22.4185 1.16504ZM16.8445 7.77842C17.1591 7.88327 17.4815 8.05974 17.6195 8.7791C17.0569 9.30155 16.696 9.24421 16.3762 9.13764C16.3377 9.12485 16.299 9.11423 16.2601 9.10577C16.1151 9.03758 15.9984 8.9172 15.9307 8.77214C15.8394 8.60081 15.8279 8.40663 15.8965 8.22388C16.0221 7.84695 16.4333 7.64135 16.8102 7.767L16.8445 7.77842Z" fill="#62A7C4"/>
<path d="M18.5807 17.3158C22.4756 16.2307 26.5533 16.7219 30.0713 18.7093C30.7223 19.0863 30.9508 19.8972 30.5967 20.5369C30.2312 21.1879 29.4088 21.4164 28.7578 21.0508C25.868 19.4289 22.5099 19.0177 19.3117 19.9086C16.6732 20.6397 14.4117 22.1931 12.7783 24.3404C12.0816 23.8607 11.362 23.3124 10.6538 22.6956C12.6298 20.1028 15.3825 18.2068 18.5807 17.3158Z" fill="#62A7C4"/>
<path d="M16.7006 15.9741C16.7006 16.6996 16.1124 17.2876 15.387 17.2876C14.6616 17.2876 14.0735 16.6996 14.0735 15.9741C14.0735 15.2487 14.6616 14.6605 15.387 14.6605C16.1124 14.6605 16.7006 15.2487 16.7006 15.9741Z" fill="#62A7C4"/>
</svg>
