<svg width="1030" height="694" viewBox="0 0 1030 694" fill="none" xmlns="http://www.w3.org/2000/svg">
<path d="M866.781 60.86C932.546 121.783 1008.65 187.248 1025.53 265.866C1042.98 344.736 1000.36 437.104 942.461 504.961C884.302 573.415 810.028 617.702 739.898 650.992C669.506 684.879 602.996 708.365 551.138 681.32C498.443 654.619 453.1 630.898 377.341 616.143C302.419 601.043 197.653 595.162 127.701 576.549C56.9113 558.28 29.3824 474.271 12.6801 384.336C-4.02229 294.401 -10.2104 197.689 34.5116 133.304C79.2335 68.9181 174.291 36.6058 258.054 45.6187C340.981 54.9762 408.359 85.5864 478.417 66.5063C548.475 47.4262 613.55 24.093 675.503 7.86256C737.719 -8.96485 801.016 -0.0632695 866.781 60.86Z" fill="#CC00FF"/>
</svg>
