<svg width="1075" height="867" viewBox="0 0 1075 867" fill="none" xmlns="http://www.w3.org/2000/svg">
<path d="M1074.66 227.928C1068.22 154.458 964.047 82.5173 848.318 41.5969C732.59 0.676451 604.5 -9.3726 505.783 10.9983C406.356 30.6949 336.205 81.337 245.893 110.324C154.678 139.688 79.3346 153.161 34.2596 194.3C-10.8153 235.439 40.523 335.384 71.7542 413.586C75.0254 495.168 -35.4697 556.232 11.8531 638.334C59.1758 720.436 170.115 796.342 298.091 834.088C426.776 872.508 572.304 873.818 702.699 853.314C833.803 833.485 948.968 791.692 979.462 721.232C1009.96 650.772 909.225 531.46 926.936 444.511C945.549 357.184 1081.89 301.546 1074.66 227.928Z" fill="#CC00FF"/>
</svg>
