<svg width="866" height="1054" viewBox="0 0 866 1054" fill="none" xmlns="http://www.w3.org/2000/svg">
<path d="M795.529 146.495C769.609 65.8693 670.744 15.373 572.109 3.06617C473.474 -9.24067 374.421 16.7093 306.152 68.2783C237.157 119.296 199.025 196.552 139.54 255.352C79.4855 314.838 26.7854 351.867 4.7525 411.163C-17.2804 470.458 49.954 567.758 95.8505 646.488C121.725 737.142 56.2946 837.826 115.392 916.258C174.49 994.69 279.571 1047.67 386.49 1052.85C494.135 1058.59 603.773 1017.76 695.787 956.83C788.527 896.455 862.996 816.052 865.665 728.072C868.333 640.092 758.456 535.403 746.794 432.624C735.701 329.159 822.097 227.053 795.529 146.495Z" fill="#CC00FF"/>
</svg>
