<svg width="32" height="32" viewBox="0 0 32 32" fill="none" xmlns="http://www.w3.org/2000/svg">
<path d="M14.2222 1.77778C14.2222 1.77778 14.2222 0 16 0C17.7778 0 17.7778 1.77778 17.7778 1.77778V3.55556C17.7778 3.55556 17.7778 5.33333 16 5.33333C14.2222 5.33333 14.2222 3.55556 14.2222 3.55556V1.77778ZM30.2222 14.2222C30.2222 14.2222 32 14.2222 32 16C32 17.7778 30.2222 17.7778 30.2222 17.7778H28.4444C28.4444 17.7778 26.6667 17.7778 26.6667 16C26.6667 14.2222 28.4444 14.2222 28.4444 14.2222H30.2222ZM3.55556 14.2222C3.55556 14.2222 5.33333 14.2222 5.33333 16C5.33333 17.7778 3.55556 17.7778 3.55556 17.7778H1.77778C1.77778 17.7778 0 17.7778 0 16C0 14.2222 1.77778 14.2222 1.77778 14.2222H3.55556ZM8.10756 6.48267C8.10756 6.48267 9.36444 7.73956 8.10756 8.99644C6.85067 10.2533 5.59378 8.99644 5.59378 8.99644L4.336 7.74044C4.336 7.74044 3.07911 6.48356 4.336 5.22578C5.59378 3.96889 6.85067 5.22578 6.85067 5.22578L8.10756 6.48267ZM26.7742 25.1493C26.7742 25.1493 28.0311 26.4062 26.7742 27.6631C25.5173 28.92 24.2604 27.6631 24.2604 27.6631L23.0036 26.4062C23.0036 26.4062 21.7467 25.1493 23.0036 23.8924C24.2604 22.6356 25.5173 23.8924 25.5173 23.8924L26.7742 25.1493ZM26.4071 8.99644C26.4071 8.99644 25.1502 10.2533 23.8933 8.99644C22.6364 7.73956 23.8933 6.48267 23.8933 6.48267L25.1502 5.22578C25.1502 5.22578 26.4071 3.96889 27.664 5.22578C28.9209 6.48267 27.664 7.73956 27.664 7.73956L26.4071 8.99644ZM7.74044 27.6631C7.74044 27.6631 6.48356 28.92 5.22667 27.6631C3.96978 26.4062 5.22667 25.1493 5.22667 25.1493L6.48356 23.8924C6.48356 23.8924 7.74044 22.6356 8.99733 23.8924C10.2542 25.1493 8.99733 26.4062 8.99733 26.4062L7.74044 27.6631ZM14.2222 28.4444C14.2222 28.4444 14.2222 26.6667 16 26.6667C17.7778 26.6667 17.7778 28.4444 17.7778 28.4444V30.2222C17.7778 30.2222 17.7778 32 16 32C14.2222 32 14.2222 30.2222 14.2222 30.2222V28.4444Z" fill="#E9AD56"/>
<path d="M16.0002 24.8889C20.9094 24.8889 24.8891 20.9092 24.8891 16C24.8891 11.0908 20.9094 7.11111 16.0002 7.11111C11.091 7.11111 7.11133 11.0908 7.11133 16C7.11133 20.9092 11.091 24.8889 16.0002 24.8889Z" fill="#E9AD56"/>
</svg>
