<svg width="36" height="36" viewBox="0 0 36 36" fill="none" xmlns="http://www.w3.org/2000/svg">
<path d="M26.4375 14.7937L26.7187 14.175L27 14.7937C27.225 15.3 27.7312 15.5812 28.2937 15.5812C28.8562 15.5812 29.3062 15.3 29.5875 14.7937L30.9937 11.925C31.3312 11.3062 31.05 10.5187 30.4312 10.2375C29.8125 9.95625 29.025 10.1812 28.7437 10.8L28.2937 11.6437L28.0125 11.025C27.7875 10.5187 27.2812 10.2375 26.7187 10.2375C26.1562 10.2375 25.7062 10.5187 25.425 11.025L25.1437 11.6437L24.75 10.7437C24.4125 10.125 23.6812 9.84375 23.0625 10.1812C22.725 10.35 22.5 10.6875 22.3875 11.025C22.3312 10.6875 22.05 10.35 21.7125 10.1812C21.0937 9.84375 20.3062 10.125 20.025 10.7437L19.575 11.5875L19.2937 10.9687C19.0687 10.4625 18.5625 10.1812 18 10.1812C17.4375 10.1812 16.9875 10.4625 16.7062 10.9687L16.425 11.5875L15.975 10.7437C15.6375 10.125 14.9062 9.84375 14.2875 10.1812C13.95 10.35 13.725 10.6875 13.6125 11.025C13.5562 10.6875 13.275 10.35 12.9375 10.1812C12.3187 9.84375 11.5312 10.125 11.25 10.7437L10.8 11.5875L10.5187 10.9687C10.2937 10.4625 9.78748 10.1812 9.22498 10.1812C8.66248 10.1812 8.21248 10.4625 7.93123 10.9687L7.64998 11.5875L7.19998 10.7437C6.86248 10.125 6.13123 9.84375 5.51248 10.1812C4.89373 10.5187 4.61248 11.25 4.94998 11.8687L6.35623 14.7375C6.58123 15.2437 7.08748 15.525 7.64998 15.525C8.21248 15.525 8.66248 15.2437 8.94373 14.7375L9.22498 14.1187L9.50623 14.7375C9.73123 15.2437 10.2375 15.525 10.8 15.525C11.3625 15.525 11.8125 15.2437 12.0937 14.7375L13.5 11.8687C13.5562 11.7562 13.5562 11.7 13.6125 11.5875C13.6125 11.7 13.6687 11.7562 13.725 11.8687L15.1312 14.7375C15.3562 15.2437 15.8625 15.525 16.425 15.525C16.9875 15.525 17.4375 15.2437 17.7187 14.7375L18 14.1187L18.2812 14.7375C18.5062 15.2437 19.0125 15.525 19.575 15.525C20.1375 15.525 20.5875 15.2437 20.8687 14.7375L22.275 11.8687C22.3312 11.7562 22.3312 11.7 22.3875 11.5875C22.3875 11.7 22.4437 11.7562 22.5 11.8687L23.9062 14.7375C24.1312 15.2437 24.6375 15.525 25.2 15.525C25.7062 15.5812 26.2125 15.2437 26.4375 14.7937Z" fill="black"/>
<path d="M32.85 4.1062H3.15001C1.63126 4.1062 0.450012 5.3437 0.450012 6.86245V18.7875C0.450012 20.3062 1.68751 21.5437 3.15001 21.5437H20.9813C21.6563 21.5437 22.275 20.9812 22.275 20.25C22.275 19.5187 21.7125 18.9562 20.9813 18.9562H3.15001C3.03751 18.9562 2.98126 18.8437 2.98126 18.7312V6.86245C2.98126 6.74995 3.03751 6.63745 3.15001 6.63745H32.9063C33.0188 6.63745 33.075 6.74995 33.075 6.86245V18.7875C33.075 18.9 32.9625 19.0124 32.85 19.0124C32.175 19.0124 31.5563 19.5749 31.5563 20.3062C31.5563 21.0374 32.1188 21.6 32.85 21.6C34.3688 21.6 35.6063 20.3624 35.6063 18.8437V6.86245C35.6063 5.3437 34.3688 4.1062 32.85 4.1062Z" fill="black"/>
<path d="M34.4813 24.6938L26.55 20.7C25.875 20.3625 25.0875 20.475 24.6375 20.9812C24.1312 21.4875 24.0187 22.275 24.3562 22.95L28.35 30.8812C28.6875 31.5 29.3063 31.95 30.0375 31.95H30.0938C30.7125 31.95 31.275 31.5562 31.5 30.9937L32.4563 28.8L34.65 27.8437C35.2125 27.6187 35.55 27.0562 35.6063 26.4375C35.55 25.65 35.1563 24.975 34.4813 24.6938ZM30.4875 26.8312L29.8687 28.2375L27.7875 24.1313L31.8938 26.2125L30.4875 26.8312Z" fill="black"/>
</svg>
